<svg width="343" height="76" viewBox="0 0 343 76" fill="none" xmlns="http://www.w3.org/2000/svg">
<path d="M295.65 53.6807C295.65 55.0088 295.216 56.1326 294.347 57.052C293.479 57.9204 292.381 58.3546 291.053 58.3546C289.724 58.3546 288.626 57.9204 287.758 57.052C286.889 56.1326 286.455 55.0088 286.455 53.6807L286.455 35.3862C286.455 34.0581 286.889 32.9598 287.758 32.0914C288.626 31.172 289.724 30.7122 291.053 30.7122C292.381 30.7122 293.479 31.172 294.347 32.0914C295.216 32.9598 295.65 34.0581 295.65 35.3862L295.65 53.6807ZM290.976 25.7318C289.239 25.7318 288.013 25.4509 287.298 24.889C286.583 24.3271 286.225 23.331 286.225 21.9007V20.4449C286.225 18.9636 286.608 17.9675 287.375 17.4567C288.192 16.8948 289.418 16.6138 291.053 16.6138C292.84 16.6138 294.092 16.8948 294.807 17.4567C295.522 18.0185 295.88 19.0146 295.88 20.4449V21.9007C295.88 23.3821 295.497 24.4037 294.73 24.9656C293.964 25.4764 292.713 25.7318 290.976 25.7318Z" fill="#252ABA"/>
<path d="M324.408 59.1208C320.066 59.1208 316.286 58.2269 313.068 56.4391C309.901 54.6001 307.449 52.1227 305.712 49.0068C304.027 45.8908 303.184 42.3662 303.184 38.4329C303.184 33.8356 304.103 29.9279 305.942 26.7098C307.832 23.4406 310.284 20.9376 313.298 19.2008C316.312 17.4641 319.504 16.5957 322.876 16.5957C325.481 16.5957 327.933 17.1321 330.231 18.2048C332.581 19.2775 334.65 20.7588 336.438 22.6488C338.226 24.4878 339.63 26.6332 340.652 29.0851C341.725 31.537 342.261 34.1421 342.261 36.9005C342.21 38.1264 341.725 39.1225 340.805 39.8888C339.886 40.655 338.813 41.0381 337.587 41.0381H308.318L306.019 33.3759H334.139L332.454 34.9083V32.8395C332.351 31.3582 331.815 30.0301 330.844 28.8552C329.925 27.6803 328.75 26.7609 327.32 26.0968C325.941 25.3817 324.459 25.0241 322.876 25.0241C321.343 25.0241 319.913 25.2284 318.585 25.6371C317.257 26.0457 316.108 26.7353 315.137 27.7059C314.166 28.6764 313.4 29.979 312.838 31.6136C312.276 33.2482 311.995 35.317 311.995 37.82C311.995 40.5783 312.557 42.9281 313.681 44.8692C314.856 46.7592 316.337 48.215 318.125 49.2366C319.964 50.2072 321.905 50.6924 323.949 50.6924C325.839 50.6924 327.345 50.5392 328.469 50.2327C329.593 49.9262 330.487 49.5686 331.151 49.16C331.866 48.7003 332.505 48.3172 333.066 48.0107C333.986 47.5509 334.854 47.3211 335.672 47.3211C336.795 47.3211 337.715 47.7042 338.43 48.4704C339.196 49.2366 339.579 50.1305 339.579 51.1522C339.579 52.5314 338.864 53.7829 337.434 54.9066C336.106 56.0304 334.241 57.0265 331.841 57.8949C329.44 58.7122 326.962 59.1208 324.408 59.1208Z" fill="#252ABA"/>
<path d="M187.367 17.3649C188.695 17.3649 189.794 17.8246 190.662 18.744C191.53 19.6124 191.965 20.7107 191.965 22.0388V41.5007C191.965 46.9154 190.458 51.2062 187.444 54.3732C184.43 57.5403 180.088 59.1238 174.418 59.1238C168.748 59.1238 164.406 57.5403 161.393 54.3732C158.43 51.2062 156.948 46.9154 156.948 41.5007V22.0388C156.948 20.7107 157.383 19.6124 158.251 18.744C159.119 17.8246 160.218 17.3649 161.546 17.3649C162.874 17.3649 163.972 17.8246 164.841 18.744C165.709 19.6124 166.143 20.7107 166.143 22.0388V41.5007C166.143 44.6167 166.833 46.9409 168.212 48.4733C169.591 49.9547 171.66 50.6954 174.418 50.6954C177.228 50.6954 179.322 49.9547 180.701 48.4733C182.08 46.9409 182.77 44.6167 182.77 41.5007V22.0388C182.77 20.7107 183.204 19.6124 184.073 18.744C184.941 17.8246 186.039 17.3649 187.367 17.3649Z" fill="#252ABA"/>
<path d="M220.155 16.5986C223.067 16.5986 225.595 16.9051 227.741 17.5181C229.937 18.1311 231.623 18.9995 232.798 20.1232C234.024 21.1959 234.636 22.4985 234.636 24.031C234.636 25.0526 234.33 26.0231 233.717 26.9426C233.104 27.811 232.21 28.2452 231.035 28.2452C230.218 28.2452 229.528 28.143 228.966 27.9387C228.456 27.6833 227.996 27.3768 227.587 27.0192C227.179 26.6616 226.693 26.3296 226.131 26.0231C225.621 25.7166 224.829 25.4868 223.756 25.3335C222.735 25.1292 221.968 25.027 221.458 25.027C218.852 25.027 216.63 25.5889 214.791 26.7127C213.004 27.8365 211.624 29.3689 210.654 31.31C209.683 33.2 209.198 35.3965 209.198 37.8995C209.198 40.3514 209.683 42.5479 210.654 44.489C211.675 46.379 213.055 47.8859 214.791 49.0097C216.579 50.1335 218.623 50.6954 220.921 50.6954C222.198 50.6954 223.296 50.6187 224.216 50.4655C225.135 50.3123 225.902 50.0824 226.515 49.7759C227.23 49.3673 227.868 48.9331 228.43 48.4733C228.992 48.0136 229.835 47.7837 230.959 47.7837C232.287 47.7837 233.308 48.2179 234.024 49.0863C234.739 49.9036 235.096 50.9252 235.096 52.1512C235.096 53.4282 234.381 54.6031 232.951 55.6758C231.521 56.6974 229.631 57.5403 227.281 58.2043C224.982 58.8173 222.479 59.1238 219.772 59.1238C215.736 59.1238 212.237 58.2043 209.275 56.3654C206.312 54.4754 204.013 51.9213 202.379 48.7032C200.795 45.4851 200.003 41.8839 200.003 37.8995C200.003 33.7109 200.846 30.033 202.532 26.866C204.269 23.6478 206.644 21.1449 209.658 19.357C212.723 17.5181 216.222 16.5986 220.155 16.5986Z" fill="#252ABA"/>
<path fill-rule="evenodd" clip-rule="evenodd" d="M252.966 22.0362V34.7674L269.453 18.2808C270.392 17.3417 271.476 16.8721 272.704 16.8721C273.968 16.836 275.07 17.2875 276.009 18.2266C276.948 19.1657 277.399 20.2674 277.363 21.5316C277.363 22.7597 276.894 23.8433 275.955 24.7824L265.618 35.119L276.945 50.8487C277.752 51.9036 278.075 53.0397 277.912 54.257C277.781 55.5149 277.188 56.5473 276.133 57.3541C275.078 58.161 273.927 58.463 272.678 58.2602C271.461 58.098 270.449 57.4894 269.642 56.4345L259.034 41.7033L252.966 47.7705V53.681C252.966 55.0091 252.532 56.1329 251.664 57.0524C250.795 57.9208 249.697 58.355 248.369 58.355C247.041 58.355 245.943 57.9208 245.074 57.0524C244.206 56.1329 243.772 55.0091 243.772 53.681V22.0362C243.772 20.7081 244.206 19.6098 245.074 18.7414C245.943 17.822 247.041 17.3623 248.369 17.3623C249.697 17.3623 250.795 17.822 251.664 18.7414C252.532 19.6098 252.966 20.7081 252.966 22.0362Z" fill="#252ABA"/>
<path d="M132.583 17.3643C135.394 17.3643 137.892 17.8913 140.079 18.9454C142.265 19.9995 144.1 21.483 145.583 23.396C147.106 25.2699 148.238 27.4561 148.98 29.9547C149.761 32.4142 150.151 35.0494 150.151 37.8603C150.151 41.6472 149.468 45.1023 148.101 48.2255C146.735 51.3096 144.744 53.7692 142.128 55.6041C139.552 57.4389 136.37 58.3564 132.583 58.3564H118.587C117.572 58.3564 116.713 58.0245 116.01 57.3609C115.347 56.6581 115.015 55.7993 115.015 54.7842V20.9364C115.015 19.9214 115.347 19.082 116.01 18.4183C116.713 17.7156 117.572 17.3643 118.587 17.3643H132.583ZM130.971 49.8373C133.431 49.8373 135.441 49.2126 137.003 47.9634C138.565 46.675 139.697 44.9963 140.399 42.9272C140.698 42.2765 141.134 39.8913 141.134 37.8603C141.134 36.0254 140.977 34.7935 140.868 34.3238C140.477 32.6451 139.853 31.1811 138.994 29.9318C138.135 28.6435 137.042 27.6284 135.715 26.8867C134.387 26.1449 132.806 25.774 130.971 25.774H123.596L124.181 25.247V50.4814L123.83 49.8373H130.971Z" fill="#252ABA"/>
<g clip-path="url(#clip0_8_209)">
<path d="M74.75 55.3902C74.75 48.4302 70.58 42.4502 64.6 39.7902C67.53 35.7902 69.23 31.0702 69.23 26.0002C69.23 11.6402 55.62 -0.00976562 38.82 -0.00976562C22.02 -0.00976562 11.33 13.4502 11.94 25.5202C12.2 30.5802 13.64 35.3102 16.57 39.3102C12.15 41.2802 5.19002 46.0902 2.87002 50.3902C2.06002 51.9002 0.150018 52.2602 1.75247e-05 54.0502C-0.149982 55.8402 1.80002 58.3902 2.48002 59.9102C4.56002 64.5602 8.64002 69.1002 13.19 71.0702C18.92 73.8902 28.26 75.7202 38.81 75.7202C49.36 75.7202 58.7 73.8902 64.43 71.0702C70.49 68.4502 74.73 62.4202 74.73 55.4002L74.75 55.3902Z" fill="#FFD88A"/>
<path d="M83.2301 21.9697C78.0301 20.7897 70.4501 23.1497 69.2701 29.0697C69.2701 29.0697 64.6401 18.8597 53.9201 22.5297C47.2401 24.8197 44.5401 35.0597 49.8101 43.4697C52.6901 43.6297 56.0601 43.3797 58.1701 41.7997C62.4301 38.5997 65.4701 39.5497 67.0101 41.2197C68.4501 42.7897 70.8001 49.6397 63.3601 54.5797C68.5101 57.6097 69.9001 57.2697 72.1101 56.9897C75.2101 56.5897 87.0201 46.3397 89.8501 37.5897C92.6901 28.8397 88.4301 23.1597 83.2301 21.9797V21.9697Z" fill="#FC8C76"/>
<path d="M88.29 37.5002C85.4 37.2302 78.85 43.8302 81.4 47.7302C83.32 50.6502 87.32 47.7602 88.65 44.8602C89.98 41.9602 90.6 37.7202 88.29 37.5002Z" fill="#FFD88A"/>
<path d="M23.97 24.99C23.64 25.24 23.58 25.47 23.57 25.64C23.55 25.84 23.57 26.15 23.93 26.55C26.04 28.94 34.7 29.92 38.91 30.17C38.96 28.2 39.35 26.55 39.89 25.2C33.61 24.07 26.08 23.39 23.97 24.99Z" fill="#FC8C76"/>
<path d="M67.7401 40.5405C66.8201 39.5405 63.3801 36.6405 57.5701 41.0005C53.7301 43.8805 44.7701 41.7805 44.6801 41.7605C44.1401 41.6305 43.6001 41.9605 43.4701 42.5005C43.3401 43.0405 43.6701 43.5805 44.2101 43.7105C44.6101 43.8105 54.1801 46.0405 58.7701 42.6005C63.1201 39.3405 65.4601 41.0205 66.2701 41.9005C67.0201 42.7205 68.0701 45.4505 67.2001 48.3405C66.0001 52.3305 61.6401 55.3605 54.6001 57.0905C54.0601 57.2205 53.7401 57.7605 53.8701 58.3005C53.9801 58.7605 54.3901 59.0605 54.8401 59.0605C54.9201 59.0605 55.0001 59.0605 55.0801 59.0305C64.8901 56.6105 68.1301 52.2005 69.1201 48.9105C70.2001 45.3405 68.9601 41.8705 67.7401 40.5405Z" fill="#252ABA"/>
<path d="M28.35 19.0601C29.31 19.0601 30.09 18.2801 30.09 17.3201C30.09 16.3601 29.31 15.5801 28.35 15.5801C27.39 15.5801 26.61 16.3601 26.61 17.3201C26.61 18.2801 27.39 19.0601 28.35 19.0601Z" fill="#252ABA"/>
<path d="M38.12 19.0601C39.08 19.0601 39.86 18.2801 39.86 17.3201C39.86 16.3601 39.08 15.5801 38.12 15.5801C37.16 15.5801 36.38 16.3601 36.38 17.3201C36.38 18.2801 37.16 19.0601 38.12 19.0601Z" fill="#252ABA"/>
<path d="M44.62 20.7306C44.29 20.2906 43.67 20.1906 43.22 20.5206C43.11 20.6006 41.92 21.5106 40.81 23.3306C36.04 22.4406 26 20.9406 22.76 23.3906C22.05 23.9306 21.64 24.6406 21.57 25.4606C21.5 26.3206 21.79 27.1506 22.42 27.8606C25.34 31.1706 35.78 31.9906 38.98 32.1706C39.07 33.1406 39.23 34.1606 39.5 35.2606C39.61 35.7106 40.02 36.0206 40.47 36.0206C40.55 36.0206 40.63 36.0206 40.71 35.9906C41.25 35.8606 41.57 35.3106 41.44 34.7806C39.27 26.1306 44.19 22.3006 44.4 22.1306C44.84 21.8006 44.93 21.1806 44.61 20.7306H44.62ZM23.92 26.5406C23.56 26.1406 23.54 25.8306 23.56 25.6306C23.57 25.4606 23.63 25.2306 23.96 24.9806C26.07 23.3806 33.6 24.0606 39.88 25.1906C39.34 26.5406 38.94 28.1906 38.9 30.1606C34.69 29.9106 26.03 28.9306 23.92 26.5406Z" fill="#252ABA"/>
</g>
<defs>
<clipPath id="clip0_8_209">
<rect width="90.76" height="75.72" fill="white"/>
</clipPath>
</defs>
</svg>
